<?xml version="1.0" encoding="utf-8"?>
<!-- Generator: Adobe Illustrator 16.0.0, SVG Export Plug-In . SVG Version: 6.00 Build 0)  -->
<!DOCTYPE svg PUBLIC "-//W3C//DTD SVG 1.1//EN" "http://www.w3.org/Graphics/SVG/1.1/DTD/svg11.dtd">
<svg version="1.1" id="Layer_1" xmlns="http://www.w3.org/2000/svg" xmlns:xlink="http://www.w3.org/1999/xlink" x="0px" y="0px"
	 width="612px" height="792px" viewBox="0 0 612 792" enable-background="new 0 0 612 792" xml:space="preserve">
<g>
	<path fill-rule="evenodd" clip-rule="evenodd" fill="#FFFFFF" d="M1.512,253.177c0-66.063,0-132.126,0-198.189
		c201.859,0,403.718,0,605.578,0c0,66.063,0,132.127,0,198.189C405.23,253.177,203.372,253.177,1.512,253.177z M83.287,200.176
		c1.385,1.757,2.392,3.736,3.989,4.917c3.779,2.793,7.664,5.549,11.827,7.695c6.222,3.207,12.646,6.056,19.121,8.727
		c6.863,2.833,13.655,5.974,21.133,6.993c3.282,0.448,7.007-0.335,8.446-4.055c0.148-0.383,0.037-1.165-0.241-1.367
		c-1.97-1.432-3.983-2.81-6.045-4.105c-1.225-0.77-1.458-1.228-0.331-2.111c1.7-1.333,3.485-2.613,5.393-3.614
		c8.174-4.291,16.764-7.563,25.634-10.103c4.057-1.162,8.208-1.707,12.376-0.884c6.361,1.255,12.689,2.68,19.02,4.083
		c9.489,2.106,18.965,4.27,28.453,6.381c4.567,1.017,9.126,2.094,13.728,2.926c5.857,1.059,11.743,1.968,17.636,2.802
		c3.546,0.503,7.123,0.858,10.697,1.054c2.357,0.13,4.75-0.026,7.104-0.267c2.502-0.254,4.703-1.19,6.123-3.497
		c1.083-1.76,0.882-2.546-1.057-3.28c-0.295-0.112-0.601-0.229-0.912-0.267c-4.491-0.56-8.998-1.016-13.47-1.697
		c-1.977-0.301-3.918-0.959-5.805-1.65c-0.604-0.22-0.977-1.068-1.455-1.628c0.547-0.245,1.083-0.516,1.643-0.726
		c0.29-0.108,0.619-0.147,0.933-0.152c5.078-0.1,10.157-0.151,15.234-0.303c1.807-0.054,3.637-0.207,5.404-0.572
		c1.966-0.405,4.021-0.732,5.502-2.371c0.958-1.059,0.895-1.744-0.527-2.099c-1.789-0.447-3.64-0.818-5.475-0.877
		c-3.987-0.13-7.987-0.173-11.97,0.006c-2.655,0.121-4.354-1.064-5.189-3.31c-0.822-2.213-1.292-4.573-1.734-6.905
		c-0.431-2.28-0.098-4.564,1.305-6.442c2.625-3.514,5.426-6.895,8.128-10.352c3.914-5.004,7.491-10.224,9.862-16.163
		c0.82-2.055,1.463-4.179,2.177-6.242c-2.613,0.337-4.938,0.574-7.242,0.948c-4.07,0.661-8.072,0.126-12.015-0.752
		c-5.989-1.336-11.069-4.309-15.249-8.864c-3.099-3.376-5.269-7.262-6.447-11.625c-0.83-3.073-1.222-6.271-1.708-9.43
		c-0.792-5.144,0.002-10.224,0.741-15.446c-0.344,0.524-0.696,0.932-0.907,1.403c-1.679,3.754-3.26,7.553-5.011,11.272
		c-2.244,4.768-4.585,9.496-8.815,12.922c-2.853,2.31-6.154,3.641-9.587,2.094c-2.617-1.18-4.952-3.164-7.129-5.106
		c-5.322-4.748-10.394-9.775-15.73-14.505c-4.2-3.723-8.946-6.72-13.908-9.353c-6.255-3.319-12.847-5.749-19.792-7.081
		c-4.081-0.782-8.228-1.461-12.368-1.642c-7.468-0.325-14.926-0.014-22.339,1.263c-6.675,1.15-13.105,3.035-19.223,5.875
		c-8.793,4.084-16.295,9.948-22.446,17.428c-5.539,6.736-9.638,14.32-12.496,22.573c-1.597,4.608-2.916,9.281-3.509,14.131
		c-0.331,2.702-0.473,5.43-0.866,8.121c-0.563,3.85-0.272,7.698,0.556,11.401c1.124,5.021,2.318,9.983,1.957,15.173
		c-0.034,0.486-0.205,0.964-0.312,1.446c-0.15-0.016-0.3-0.032-0.45-0.048c-1.357-3.218-2.715-6.435-3.994-9.464
		c-2.157,0.443-4.032,1.038-5.941,1.18c-6.561,0.489-12.941-0.585-19.165-2.633c-5.611-1.846-11.193-3.781-16.813-5.599
		c-2.284-0.739-4.608-1.266-7.019-0.261c-1.995,0.832-4.103,1.398-6.089,2.249c-2.318,0.992-4.649,2.013-6.813,3.293
		c-2.758,1.631-3.324,4.448-1.61,7.162c2.159,3.418,5.257,5.89,8.541,8.134c5.935,4.057,12.48,6.682,19.474,8.275
		c4.58,1.043,9.223,1.61,13.897,1.589c3.629-0.017,7.295-0.253,10.875-0.829c4.488-0.723,8.936-1.77,13.341-2.908
		C77.462,202.297,80.494,201.104,83.287,200.176z M551.137,168.089c-0.277-3.219-0.313-6.248-0.842-9.187
		c-0.959-5.344-3.48-9.88-8.049-13.015c-4.473-3.069-9.477-3.88-14.832-3.359c-7.906,0.769-13.428,4.794-16.605,11.971
		c-2.494,5.627-2.764,11.566-1.604,17.538c0.996,5.118,3.404,9.519,7.568,12.782c5.203,4.077,11.24,4.971,17.58,4.148
		c7.912-1.028,13.066-5.877,16.887-12.629c-1.436-0.818-2.811-1.607-4.188-2.384c-1.377-0.776-2.764-1.538-4.197-2.335
		c-0.725,1.011-1.383,1.938-2.051,2.857c-3.67,5.056-7.154,6.385-13.135,5.188c-5.514-1.102-8.813-7.197-8.258-11.575
		C529.84,168.089,540.281,168.089,551.137,168.089z M431.939,168.137c-0.271-3.207-0.311-6.225-0.826-9.159
		c-1.014-5.708-3.762-10.445-8.791-13.57c-4.293-2.666-9.01-3.362-14.018-2.889c-7.436,0.701-12.943,4.251-16.162,10.935
		c-3.643,7.553-3.719,15.395-0.674,23.156c2.232,5.697,6.42,9.594,12.273,11.476c4.045,1.3,8.188,1.413,12.41,0.681
		c7.549-1.31,12.219-6.142,15.928-12.428c-2.844-1.602-5.574-3.139-8.396-4.728c-0.455,0.644-0.887,1.217-1.283,1.813
		c-2.787,4.177-6.213,6.956-11.703,6.632c-6.371-0.375-10.867-6.222-10.545-11.918C410.59,168.137,421.035,168.137,431.939,168.137z
		 M347.666,117.571c0,23.482,0,46.877,0,70.222c3.48,0,6.848,0,10.324,0c0-11.186,0-22.265,0-33.505c7.92,0,15.73,0,23.527,0
		c0-3.348,0-6.531,0-9.875c-7.904,0-15.715,0-23.463,0c0-5.777,0-11.392,0-17.117c8.164,0,16.215,0,24.305,0
		c0-3.298,0-6.481,0-9.725C370.781,117.571,359.285,117.571,347.666,117.571z M562.604,152.927c0,11.785,0,23.356,0,34.899
		c3.404,0,6.646,0,10.055,0c0-11.644,0-23.214,0-34.906c2.717,0,5.266,0,7.879,0c0-3.123,0-6.122,0-9.292c-2.656,0-5.24,0-7.939,0
		c0-5.47,0-10.771,0-16.13c-3.393,0-6.668,0-10.104,0c0,5.411,0,10.746,0,16.194c-1.52,0-2.877,0-4.289,0c0,3.118,0,6.118,0,9.234
		C559.631,152.927,560.992,152.927,562.604,152.927z M452.184,187.826c0-0.608,0-1.145,0-1.683c0-6.831-0.061-13.662,0.033-20.491
		c0.035-2.353,0.238-4.749,0.74-7.043c0.99-4.526,3.936-6.792,8.426-6.424c1.688,0.139,3.314,1.035,5.123,1.637
		c1.4-2.806,2.9-5.817,4.422-8.867c-6.967-4.088-13.115-3.443-18.525,2.727c-0.08-0.103-0.16-0.205-0.238-0.306
		c0-1.205,0-2.409,0-3.604c-3.422,0-6.641,0-9.818,0c0,14.757,0,29.403,0,44.054C445.635,187.826,448.826,187.826,452.184,187.826z
		 M487.418,187.829c0-0.607,0-1.143,0-1.678c0-6.875-0.041-13.753,0.02-20.628c0.025-2.905,0.123-5.823,1.266-8.587
		c1.287-3.118,3.754-4.989,7.082-4.752c1.963,0.14,3.881,0.929,6.029,1.481c1.32-2.643,2.822-5.655,4.375-8.761
		c-3.223-1.665-6.287-2.872-9.9-2.423c-3.639,0.451-6.094,2.734-8.887,5.274c0-1.579,0-2.784,0-3.986c-3.42,0-6.643,0-9.826,0
		c0,14.755,0,29.401,0,44.06C480.863,187.829,484.055,187.829,487.418,187.829z M257.866,96.878
		c-0.248,0.296-0.281,0.33-0.303,0.369c-0.003,0.006,0.044,0.052,0.074,0.062c2.486,0.747,5.027,1.352,7.441,2.285
		c1.692,0.654,3.277,1.691,3.745,3.957c-2.487-0.416-4.836-0.771-7.17-1.209c-2.294-0.431-4.572-0.947-6.858-1.426
		c1.433,1.628,2.508,3.313,2.416,5.327c-0.085,1.869-0.662,3.715-0.988,5.397c5.272-4.194,11.727-5.751,18.465-6.276
		c4.547-0.354,9.101-0.024,13.5,1.345c6.111,1.902,11.034,5.054,12.188,12.297c2.024-4.074,1.665-8.106,1.334-12.187
		c-2.91-0.563-5.661-1.387-7.643-3.869c0.578-1.581,2.031-1.95,3.576-2.5C284.698,93.426,271.45,92.006,257.866,96.878z
		 M287.774,144.135c1.26,0.092,2.783,0.163,3.519-1.912c0.339-0.955,1.465-1.6,2.062-2.499c0.772-1.164,0.495-1.873-0.795-2.441
		c-1.314-0.579-2.65-1.111-3.975-1.668c-0.912-0.384-1.826-0.563-2.705,0.062c-0.882,0.627-1.792,1.225-2.606,1.932
		c-1.506,1.307-1.36,2.867,0.25,4.011c0.324,0.23,0.609,0.663,0.696,1.051c0.24,1.072,0.837,1.551,1.926,1.468
		C286.554,144.109,286.969,144.135,287.774,144.135z M269.173,120.813c-2.083-0.155-3.25,1.511-3.348,3.099
		c-0.113,1.827,1.562,3.444,3.411,3.431c1.731-0.012,3.336-1.538,3.372-3.206C272.648,122.26,271.147,120.808,269.173,120.813z
		 M294.982,125.79c-0.038,0.011-0.075,0.021-0.113,0.032c0.146,0.557,0.178,1.185,0.469,1.652c0.307,0.49,0.861,1.144,1.309,1.144
		c0.49,0,1.129-0.574,1.431-1.064c0.308-0.501,0.367-1.203,0.39-1.821c0.051-1.452-0.875-2.732-1.874-2.71
		c-0.875,0.019-1.584,1.177-1.61,2.632C294.98,125.698,294.982,125.744,294.982,125.79z"/>
	<path fill-rule="evenodd" clip-rule="evenodd" d="M83.287,200.176c-2.792,0.929-5.824,2.121-8.954,2.931
		c-4.405,1.139-8.853,2.186-13.341,2.908c-3.58,0.576-7.246,0.812-10.875,0.829c-4.674,0.021-9.318-0.546-13.897-1.589
		c-6.994-1.593-13.54-4.218-19.474-8.275c-3.284-2.244-6.382-4.715-8.541-8.134c-1.714-2.713-1.148-5.53,1.61-7.162
		c2.165-1.281,4.495-2.302,6.813-3.293c1.987-0.85,4.094-1.417,6.089-2.249c2.411-1.005,4.735-0.478,7.019,0.261
		c5.62,1.818,11.202,3.753,16.813,5.599c6.224,2.047,12.604,3.122,19.165,2.633c1.909-0.142,3.784-0.737,5.941-1.18
		c1.278,3.029,2.636,6.246,3.994,9.464c0.15,0.016,0.3,0.032,0.45,0.048c0.107-0.482,0.278-0.96,0.312-1.446
		c0.361-5.189-0.833-10.152-1.957-15.173c-0.828-3.703-1.119-7.551-0.556-11.401c0.394-2.691,0.536-5.419,0.866-8.121
		c0.593-4.851,1.912-9.523,3.509-14.131c2.858-8.253,6.957-15.837,12.496-22.573c6.151-7.48,13.652-13.344,22.446-17.428
		c6.118-2.841,12.548-4.726,19.223-5.875c7.413-1.277,14.871-1.588,22.339-1.263c4.14,0.181,8.287,0.86,12.368,1.642
		c6.944,1.332,13.537,3.761,19.792,7.081c4.962,2.633,9.708,5.63,13.908,9.353c5.336,4.73,10.409,9.758,15.73,14.505
		c2.177,1.943,4.512,3.927,7.129,5.106c3.433,1.547,6.734,0.216,9.587-2.094c4.23-3.426,6.572-8.154,8.815-12.922
		c1.75-3.719,3.332-7.518,5.011-11.272c0.211-0.471,0.563-0.878,0.907-1.403c-0.738,5.222-1.532,10.302-0.741,15.446
		c0.486,3.158,0.878,6.356,1.708,9.43c1.178,4.363,3.348,8.249,6.447,11.625c4.18,4.556,9.259,7.528,15.249,8.864
		c3.943,0.879,7.944,1.414,12.015,0.752c2.303-0.374,4.628-0.61,7.242-0.948c-0.714,2.063-1.356,4.187-2.177,6.242
		c-2.371,5.939-5.948,11.159-9.862,16.163c-2.702,3.457-5.502,6.838-8.128,10.352c-1.403,1.877-1.736,4.162-1.305,6.442
		c0.441,2.332,0.912,4.692,1.734,6.905c0.835,2.245,2.534,3.431,5.189,3.31c3.983-0.18,7.983-0.136,11.97-0.006
		c1.835,0.06,3.686,0.431,5.475,0.877c1.422,0.355,1.485,1.04,0.527,2.099c-1.481,1.639-3.536,1.965-5.502,2.371
		c-1.767,0.365-3.597,0.518-5.404,0.572c-5.077,0.152-10.156,0.203-15.234,0.303c-0.313,0.005-0.643,0.044-0.933,0.152
		c-0.56,0.209-1.096,0.48-1.643,0.726c0.479,0.561,0.852,1.408,1.455,1.628c1.886,0.691,3.828,1.349,5.805,1.65
		c4.472,0.681,8.979,1.137,13.47,1.697c0.311,0.038,0.616,0.155,0.912,0.267c1.938,0.734,2.14,1.52,1.057,3.28
		c-1.42,2.307-3.621,3.242-6.123,3.497c-2.354,0.241-4.747,0.397-7.104,0.267c-3.575-0.196-7.151-0.551-10.697-1.054
		c-5.893-0.834-11.779-1.743-17.636-2.802c-4.602-0.832-9.161-1.909-13.728-2.926c-9.488-2.112-18.963-4.275-28.453-6.381
		c-6.331-1.404-12.659-2.828-19.02-4.083c-4.168-0.823-8.319-0.278-12.376,0.884c-8.87,2.54-17.459,5.812-25.634,10.103
		c-1.908,1.001-3.693,2.281-5.393,3.614c-1.127,0.883-0.894,1.341,0.331,2.111c2.062,1.296,4.076,2.673,6.045,4.105
		c0.278,0.203,0.389,0.984,0.241,1.367c-1.439,3.719-5.164,4.502-8.446,4.055c-7.478-1.019-14.27-4.16-21.133-6.993
		c-6.475-2.671-12.899-5.52-19.121-8.727c-4.164-2.146-8.048-4.902-11.827-7.695C85.679,203.912,84.672,201.933,83.287,200.176z"/>
	<path fill-rule="evenodd" clip-rule="evenodd" d="M551.137,168.089c-10.855,0-21.297,0-31.725,0
		c-0.555,4.378,2.744,10.474,8.258,11.575c5.98,1.196,9.465-0.133,13.135-5.188c0.668-0.919,1.326-1.846,2.051-2.857
		c1.434,0.797,2.82,1.56,4.197,2.335c1.377,0.776,2.752,1.566,4.188,2.384c-3.82,6.751-8.975,11.601-16.887,12.629
		c-6.34,0.822-12.377-0.071-17.58-4.148c-4.164-3.263-6.572-7.665-7.568-12.782c-1.16-5.972-0.891-11.91,1.604-17.538
		c3.178-7.176,8.699-11.202,16.605-11.971c5.355-0.521,10.359,0.29,14.832,3.359c4.568,3.135,7.09,7.671,8.049,13.015
		C550.824,161.841,550.859,164.87,551.137,168.089z M519.889,159.833c6.91,0,13.723,0,20.539,0
		c-0.342-4.136-4.352-7.904-8.568-8.277C524.68,150.919,520.84,155.402,519.889,159.833z"/>
	<path fill-rule="evenodd" clip-rule="evenodd" d="M431.939,168.137c-10.904,0-21.35,0-31.787,0
		c-0.322,5.697,4.174,11.543,10.545,11.918c5.49,0.323,8.916-2.455,11.703-6.632c0.396-0.596,0.828-1.169,1.283-1.813
		c2.822,1.589,5.553,3.126,8.396,4.728c-3.709,6.286-8.379,11.119-15.928,12.428c-4.223,0.732-8.365,0.619-12.41-0.681
		c-5.854-1.881-10.041-5.779-12.273-11.476c-3.045-7.761-2.969-15.603,0.674-23.156c3.219-6.684,8.727-10.234,16.162-10.935
		c5.008-0.473,9.725,0.223,14.018,2.889c5.029,3.125,7.777,7.863,8.791,13.57C431.629,161.912,431.668,164.931,431.939,168.137z
		 M421.271,159.842c-0.836-4.736-4.355-8.028-8.797-8.249c-6.301-0.314-10.727,2.853-11.752,8.249
		C407.543,159.842,414.352,159.842,421.271,159.842z"/>
	<path fill-rule="evenodd" clip-rule="evenodd" d="M347.666,117.571c11.619,0,23.115,0,34.693,0c0,3.244,0,6.427,0,9.725
		c-8.09,0-16.141,0-24.305,0c0,5.725,0,11.339,0,17.117c7.748,0,15.559,0,23.463,0c0,3.344,0,6.528,0,9.875
		c-7.797,0-15.607,0-23.527,0c0,11.24,0,22.319,0,33.505c-3.477,0-6.844,0-10.324,0
		C347.666,164.448,347.666,141.053,347.666,117.571z"/>
	<path fill-rule="evenodd" clip-rule="evenodd" d="M562.604,152.927c-1.611,0-2.973,0-4.398,0c0-3.117,0-6.117,0-9.234
		c1.412,0,2.77,0,4.289,0c0-5.448,0-10.783,0-16.194c3.436,0,6.711,0,10.104,0c0,5.36,0,10.661,0,16.13c2.699,0,5.283,0,7.939,0
		c0,3.17,0,6.169,0,9.292c-2.613,0-5.162,0-7.879,0c0,11.692,0,23.262,0,34.906c-3.408,0-6.65,0-10.055,0
		C562.604,176.283,562.604,164.711,562.604,152.927z"/>
	<path fill-rule="evenodd" clip-rule="evenodd" d="M452.184,187.826c-3.357,0-6.549,0-9.838,0c0-14.651,0-29.297,0-44.054
		c3.178,0,6.396,0,9.818,0c0,1.194,0,2.398,0,3.604c0.078,0.102,0.158,0.204,0.238,0.306c5.41-6.17,11.559-6.815,18.525-2.727
		c-1.521,3.05-3.021,6.061-4.422,8.867c-1.809-0.602-3.436-1.498-5.123-1.637c-4.49-0.369-7.436,1.897-8.426,6.424
		c-0.502,2.294-0.705,4.69-0.74,7.043c-0.094,6.829-0.033,13.66-0.033,20.491C452.184,186.681,452.184,187.218,452.184,187.826z"/>
	<path fill-rule="evenodd" clip-rule="evenodd" d="M487.418,187.829c-3.363,0-6.555,0-9.842,0c0-14.659,0-29.304,0-44.06
		c3.184,0,6.406,0,9.826,0c0,1.202,0,2.407,0,3.986c2.793-2.54,5.248-4.823,8.887-5.274c3.613-0.449,6.678,0.758,9.9,2.423
		c-1.553,3.106-3.055,6.118-4.375,8.761c-2.148-0.552-4.066-1.341-6.029-1.481c-3.328-0.237-5.795,1.634-7.082,4.752
		c-1.143,2.764-1.24,5.682-1.266,8.587c-0.061,6.875-0.02,13.752-0.02,20.628C487.418,186.686,487.418,187.222,487.418,187.829z"/>
	<path fill-rule="evenodd" clip-rule="evenodd" d="M257.866,96.878c13.584-4.872,26.832-3.452,39.778,3.572
		c-1.545,0.551-2.998,0.92-3.576,2.5c1.981,2.482,4.732,3.307,7.643,3.869c0.331,4.081,0.69,8.113-1.334,12.187
		c-1.154-7.243-6.077-10.395-12.188-12.297c-4.399-1.369-8.953-1.7-13.5-1.345c-6.738,0.525-13.193,2.082-18.465,6.276
		c0.326-1.682,0.903-3.528,0.988-5.397c0.092-2.015-0.983-3.699-2.416-5.327c2.286,0.479,4.564,0.995,6.858,1.426
		c2.334,0.438,4.683,0.793,7.17,1.209c-0.468-2.266-2.053-3.303-3.745-3.957c-2.414-0.933-4.955-1.538-7.441-2.285
		c-0.03-0.009-0.077-0.056-0.074-0.062C257.584,97.208,257.618,97.174,257.866,96.878z"/>
	<path fill-rule="evenodd" clip-rule="evenodd" d="M287.774,144.135c-0.805,0-1.22-0.026-1.629,0.004
		c-1.089,0.083-1.686-0.396-1.926-1.468c-0.087-0.388-0.372-0.82-0.696-1.051c-1.61-1.145-1.756-2.705-0.25-4.011
		c0.814-0.707,1.724-1.305,2.606-1.932c0.879-0.625,1.792-0.446,2.705-0.062c1.324,0.557,2.66,1.089,3.975,1.668
		c1.29,0.568,1.567,1.277,0.795,2.441c-0.597,0.899-1.723,1.544-2.062,2.499C290.557,144.298,289.034,144.228,287.774,144.135z"/>
	<path fill-rule="evenodd" clip-rule="evenodd" d="M269.173,120.813c1.974-0.005,3.475,1.447,3.435,3.324
		c-0.035,1.668-1.64,3.193-3.372,3.206c-1.849,0.014-3.524-1.604-3.411-3.431C265.922,122.324,267.089,120.658,269.173,120.813z"/>
	<path fill-rule="evenodd" clip-rule="evenodd" d="M294.982,125.79c0-0.046-0.002-0.092,0-0.137c0.026-1.455,0.735-2.613,1.61-2.632
		c0.999-0.021,1.925,1.258,1.874,2.71c-0.022,0.619-0.082,1.32-0.39,1.821c-0.302,0.491-0.94,1.064-1.431,1.064
		c-0.447,0-1.002-0.653-1.309-1.144c-0.291-0.467-0.322-1.095-0.469-1.652C294.907,125.811,294.944,125.801,294.982,125.79z"/>
	<path fill-rule="evenodd" clip-rule="evenodd" fill="#FFFFFF" d="M519.889,159.833c0.951-4.431,4.791-8.913,11.971-8.277
		c4.217,0.374,8.227,4.141,8.568,8.277C533.611,159.833,526.799,159.833,519.889,159.833z"/>
	<path fill-rule="evenodd" clip-rule="evenodd" fill="#FFFFFF" d="M421.271,159.842c-6.92,0-13.729,0-20.549,0
		c1.025-5.396,5.451-8.563,11.752-8.249C416.916,151.814,420.436,155.106,421.271,159.842z"/>
</g>
</svg>
