<?xml version="1.0" encoding="utf-8"?>
<!-- Generator: Adobe Illustrator 16.0.0, SVG Export Plug-In . SVG Version: 6.00 Build 0)  -->
<!DOCTYPE svg PUBLIC "-//W3C//DTD SVG 1.1//EN" "http://www.w3.org/Graphics/SVG/1.1/DTD/svg11.dtd">
<svg version="1.1" id="Layer_1" xmlns="http://www.w3.org/2000/svg" xmlns:xlink="http://www.w3.org/1999/xlink" x="0px" y="0px"
	 width="464px" height="224.688px" viewBox="0 0 464 224.688" enable-background="new 0 0 464 224.688" xml:space="preserve">
<g>
	<path fill-rule="evenodd" clip-rule="evenodd" fill="#FFFFFF" d="M470.619,224.688c-156.733,0-313.467,0-470.201,0
		c0-92.09,0-184.18,0-276.27c156.734,0,313.468,0,470.201,0C470.619,40.508,470.619,132.598,470.619,224.688z M106.928,143.479
		c-3.18,0.651-6.092,1.573-9.056,1.794c-9.96,0.743-19.647-0.892-29.096-4.011c-8.517-2.812-16.995-5.743-25.528-8.505
		c-3.613-1.17-7.295-1.962-11.037-0.194c-1.664,0.787-3.501,1.199-5.194,1.933c-4.704,2.04-9.527,3.876-14.01,6.329
		c-4.19,2.292-4.978,6.652-2.496,10.682c3.265,5.3,8.013,9.095,13.069,12.519c8.676,5.875,18.169,9.81,28.382,12.239
		c7.701,1.832,15.477,2.842,23.331,2.716c6.048-0.096,12.1-0.879,18.12-1.602c8.27-0.993,16.227-3.343,24.07-6.083
		c2.56-0.894,5.11-1.813,7.031-2.497c2.187,2.765,3.729,5.746,6.147,7.56c5.491,4.118,11.137,8.198,17.22,11.318
		c9.764,5.009,19.811,9.521,29.962,13.7c10.358,4.264,20.614,9.012,31.904,10.519c5.031,0.672,10.593-0.518,12.814-6.19
		c0.224-0.572,0.021-1.754-0.411-2.068c-2.991-2.174-6.05-4.263-9.18-6.233c-1.839-1.159-2.182-1.859-0.455-3.21
		c2.583-2.021,5.301-3.955,8.198-5.475c11.315-5.935,23.122-10.733,35.418-14.212c4.585-1.297,9.306-2.532,14.027-2.843
		c8.662-0.571,16.965,2.191,25.347,3.919c8.831,1.819,17.588,3.992,26.382,5.992c10.392,2.364,20.77,4.789,31.188,7.034
		c7.817,1.685,15.669,3.232,23.54,4.644c7.146,1.281,14.322,2.408,21.514,3.392c5.32,0.727,10.676,1.3,16.035,1.588
		c3.649,0.197,7.353-0.027,10.995-0.409c3.709-0.388,6.848-1.868,9.209-5.126c1.908-2.634,1.016-4.369-1.777-5.229
		c-0.394-0.121-0.781-0.292-1.185-0.343c-6.82-0.845-13.663-1.537-20.453-2.57c-3.002-0.457-5.943-1.477-8.817-2.505
		c-0.89-0.318-1.467-1.507-2.188-2.298c0.843-0.437,1.667-0.919,2.538-1.29c0.427-0.183,0.941-0.21,1.419-0.22
		c7.71-0.15,15.422-0.227,23.131-0.458c2.744-0.083,5.525-0.309,8.204-0.875c2.909-0.615,5.968-1.079,8.195-3.47
		c1.643-1.762,1.512-2.791-0.902-3.38c-2.654-0.648-5.396-1.183-8.116-1.266c-6.054-0.185-12.126-0.251-18.175,0.011
		c-3.925,0.171-6.512-1.523-7.758-4.871c-1.273-3.423-2.037-7.065-2.722-10.669c-0.641-3.378-0.18-6.82,1.882-9.604
		c4.004-5.407,8.318-10.583,12.464-15.886c5.941-7.6,11.365-15.531,14.969-24.547c1.242-3.107,2.201-6.327,3.293-9.506
		c-4.609,0.67-8.711,1.565-12.85,1.805c-7.411,0.428-14.714-0.486-21.747-3.02c-10.841-3.904-18.95-11.049-24.275-21.185
		c-3.674-6.994-5.259-14.602-6-22.489c-0.743-7.924,0.054-15.674,1.264-23.81c-0.604,1.021-1.124,1.74-1.484,2.531
		c-3.215,7.055-6.223,14.211-9.652,21.16c-2.837,5.748-6.074,11.318-11.301,15.368c-2.77,2.146-5.738,3.63-9.341,3.975
		c-5.148,0.494-8.872-2.269-12.312-5.286c-5.483-4.808-10.627-10.001-15.95-14.994c-3.339-3.131-6.604-6.362-10.145-9.252
		c-9.061-7.396-18.75-13.792-29.487-18.606c-13.323-5.974-27.331-9.086-41.783-9.902c-10.423-0.589-20.869-0.083-31.271,1.481
		c-11.073,1.665-21.708,4.633-31.847,9.3c-13.452,6.191-24.861,15.153-34.27,26.538c-8.531,10.323-14.916,21.965-19.072,34.676
		c-2.221,6.793-3.699,13.853-5.134,20.87c-0.838,4.098-0.793,8.369-1.391,12.526c-0.84,5.844-0.404,11.683,0.858,17.308
		c1.711,7.623,3.51,15.161,2.965,23.041c-0.05,0.717-0.27,1.422-0.41,2.133c-0.239,0.012-0.478,0.025-0.716,0.037
		c-1.021-2.43-2.039-4.86-3.063-7.288C108.921,148.183,107.878,145.726,106.928,143.479z M454.067,45.115
		c2.424-2.649,3.319-10.252,2.066-18.033c-4.364-0.788-8.508-2.108-11.509-5.836c0.887-2.411,3.108-2.959,5.165-3.736
		c-14.621-10.363-49.555-13.165-60.597-4.867c0.447,0.164,0.888,0.354,1.344,0.487c3.396,0.993,6.893,1.728,10.159,3.04
		c2.494,1.003,4.888,2.55,5.634,6.072c-7.267-1.366-14.313-2.69-21.606-4.061c5.716,6.719,4.373,9.733,2.064,16.569
		c8.204-6.59,17.872-8.906,27.925-9.819c4.039-0.367,8.176,0.038,12.245,0.368c6.156,0.5,12.022,2.124,17.334,5.399
		C449.716,34.042,453.251,38.677,454.067,45.115z M434.188,84.127c1.862-0.403,3.946-0.26,5.062-1.229
		c1.796-1.562,3.042-3.801,4.351-5.861c1.091-1.718,0.606-2.882-1.313-3.707c-2.005-0.86-4.023-1.69-6.05-2.502
		c-1.3-0.521-2.621-0.887-3.907,0.069c-1.537,1.142-3.128,2.222-4.6,3.444c-1.568,1.303-1.438,3.274-0.389,4.453
		c1.151,1.294,2.101,2.615,3.072,4.018C431.034,83.706,432.913,83.727,434.188,84.127z M406.845,48.367
		c-3.167-0.233-4.932,2.256-5.098,4.691c-0.188,2.771,2.354,5.238,5.164,5.224c2.722-0.014,5.202-2.458,5.135-5.061
		C411.976,50.44,409.749,48.362,406.845,48.367z M446.018,55.995c-0.05,0.013-0.099,0.025-0.148,0.038
		c0.196,0.784,0.21,1.69,0.634,2.322c0.528,0.785,1.418,1.884,2.108,1.854c0.779-0.033,1.648-1.073,2.214-1.864
		c0.397-0.558,0.473-1.429,0.483-2.163c0.032-2.031-0.832-4.352-2.709-4.461c-1.413-0.082-2.55,1.71-2.582,4.066
		C446.017,55.856,446.018,55.926,446.018,55.995z"/>
	<path fill-rule="evenodd" clip-rule="evenodd" d="M106.928,143.479c0.95,2.246,1.993,4.704,3.031,7.164
		c1.024,2.428,2.042,4.858,3.063,7.288c0.239-0.012,0.478-0.024,0.716-0.037c0.141-0.711,0.36-1.416,0.41-2.133
		c0.545-7.88-1.254-15.418-2.965-23.041c-1.263-5.625-1.698-11.463-0.858-17.308c0.598-4.158,0.553-8.428,1.391-12.526
		c1.435-7.017,2.913-14.077,5.134-20.87c4.157-12.711,10.541-24.353,19.072-34.676c9.409-11.385,20.818-20.347,34.27-26.538
		c10.139-4.667,20.773-7.635,31.847-9.3c10.402-1.564,20.848-2.07,31.271-1.481c14.452,0.816,28.459,3.928,41.783,9.902
		c10.736,4.814,20.426,11.21,29.487,18.606c3.541,2.89,6.806,6.121,10.145,9.252c5.323,4.992,10.467,10.186,15.95,14.994
		c3.439,3.017,7.163,5.779,12.312,5.286c3.603-0.345,6.571-1.829,9.341-3.975c5.227-4.05,8.464-9.62,11.301-15.368
		c3.43-6.948,6.438-14.104,9.652-21.16c0.36-0.791,0.88-1.51,1.484-2.531c-1.21,8.135-2.007,15.886-1.264,23.81
		c0.741,7.887,2.326,15.495,6,22.489c5.325,10.136,13.435,17.281,24.275,21.185c7.033,2.533,14.336,3.448,21.747,3.02
		c4.139-0.239,8.24-1.134,12.85-1.805c-1.092,3.179-2.051,6.399-3.293,9.506c-3.604,9.016-9.027,16.947-14.969,24.547
		c-4.146,5.303-8.46,10.479-12.464,15.886c-2.062,2.784-2.522,6.226-1.882,9.604c0.685,3.604,1.448,7.246,2.722,10.669
		c1.246,3.348,3.833,5.042,7.758,4.871c6.049-0.263,12.121-0.196,18.175-0.011c2.72,0.083,5.462,0.618,8.116,1.266
		c2.414,0.59,2.545,1.618,0.902,3.38c-2.228,2.391-5.286,2.855-8.195,3.47c-2.679,0.566-5.46,0.792-8.204,0.875
		c-7.709,0.231-15.421,0.308-23.131,0.458c-0.478,0.01-0.992,0.037-1.419,0.22c-0.871,0.371-1.695,0.854-2.538,1.29
		c0.721,0.791,1.298,1.979,2.188,2.298c2.874,1.028,5.815,2.048,8.817,2.505c6.79,1.034,13.633,1.726,20.453,2.57
		c0.403,0.05,0.791,0.222,1.185,0.343c2.793,0.859,3.686,2.595,1.777,5.229c-2.361,3.258-5.5,4.739-9.209,5.126
		c-3.643,0.381-7.346,0.605-10.995,0.409c-5.359-0.289-10.715-0.861-16.035-1.588c-7.191-0.983-14.368-2.11-21.514-3.392
		c-7.871-1.412-15.723-2.959-23.54-4.644c-10.418-2.245-20.796-4.67-31.188-7.034c-8.794-2-17.551-4.173-26.382-5.992
		c-8.382-1.728-16.685-4.49-25.347-3.919c-4.722,0.312-9.442,1.546-14.027,2.843c-12.297,3.479-24.103,8.277-35.418,14.212
		c-2.897,1.52-5.615,3.454-8.198,5.475c-1.727,1.351-1.384,2.051,0.455,3.21c3.129,1.971,6.189,4.06,9.18,6.233
		c0.431,0.313,0.634,1.496,0.411,2.068c-2.221,5.672-7.783,6.862-12.814,6.19c-11.29-1.507-21.546-6.254-31.904-10.519
		c-10.151-4.179-20.198-8.691-29.962-13.7c-6.083-3.121-11.729-7.2-17.22-11.318c-2.418-1.814-3.96-4.795-6.147-7.56
		c-1.921,0.683-4.472,1.603-7.031,2.497c-7.843,2.74-15.8,5.09-24.07,6.083c-6.021,0.723-12.072,1.506-18.12,1.602
		c-7.854,0.125-15.63-0.884-23.331-2.716c-10.213-2.429-19.706-6.364-28.382-12.239c-5.056-3.424-9.804-7.219-13.069-12.519
		c-2.482-4.03-1.695-8.39,2.496-10.682c4.483-2.453,9.307-4.289,14.01-6.329c1.693-0.734,3.53-1.146,5.194-1.933
		c3.742-1.768,7.424-0.976,11.037,0.194c8.533,2.762,17.011,5.693,25.528,8.505c9.448,3.12,19.135,4.754,29.096,4.011
		C100.836,145.052,103.748,144.13,106.928,143.479z"/>
	<path fill-rule="evenodd" clip-rule="evenodd" d="M454.067,45.115c-0.816-6.438-4.352-11.073-9.775-14.417
		c-5.312-3.275-11.178-4.898-17.334-5.399c-4.069-0.331-8.206-0.735-12.245-0.368c-10.053,0.913-19.721,3.229-27.925,9.819
		c2.309-6.836,3.651-9.85-2.064-16.569c7.294,1.371,14.34,2.695,21.606,4.061c-0.746-3.522-3.14-5.069-5.634-6.072
		c-3.267-1.312-6.764-2.046-10.159-3.04c-0.456-0.133-0.896-0.324-1.344-0.487c11.042-8.298,45.976-5.497,60.597,4.867
		c-2.057,0.777-4.278,1.325-5.165,3.736c3.001,3.728,7.145,5.048,11.509,5.836C457.387,34.862,456.491,42.465,454.067,45.115z"/>
	<path fill-rule="evenodd" clip-rule="evenodd" d="M434.188,84.127c-1.275-0.4-3.154-0.421-3.774-1.315
		c-0.972-1.403-1.921-2.724-3.072-4.018c-1.049-1.178-1.18-3.15,0.389-4.453c1.472-1.222,3.063-2.302,4.6-3.444
		c1.286-0.956,2.607-0.59,3.907-0.069c2.026,0.812,4.045,1.642,6.05,2.502c1.92,0.824,2.404,1.988,1.313,3.707
		c-1.309,2.06-2.555,4.299-4.351,5.861C438.135,83.867,436.051,83.724,434.188,84.127z"/>
	<path fill-rule="evenodd" clip-rule="evenodd" d="M406.845,48.367c2.904-0.005,5.131,2.073,5.201,4.855
		c0.067,2.603-2.413,5.047-5.135,5.061c-2.811,0.014-5.353-2.454-5.164-5.224C401.913,50.623,403.678,48.134,406.845,48.367z"/>
	<path fill-rule="evenodd" clip-rule="evenodd" d="M446.018,55.995c0-0.069-0.001-0.139,0-0.208
		c0.032-2.356,1.169-4.148,2.582-4.066c1.877,0.109,2.741,2.43,2.709,4.461c-0.011,0.734-0.086,1.605-0.483,2.163
		c-0.565,0.792-1.435,1.831-2.214,1.864c-0.69,0.03-1.58-1.069-2.108-1.854c-0.424-0.631-0.438-1.538-0.634-2.322
		C445.919,56.021,445.968,56.008,446.018,55.995z"/>
</g>
</svg>
